HIERARCHY
ROOT Hips
{
	OFFSET 0.000000 0.000000 0.000000 
	CHANNELS 6 Xposition Yposition Zposition Zrotation Yrotation Xrotation
	JOINT LeftUpLeg
	{
		OFFSET 1.363060 -1.794630 0.839290 
		CHANNELS 3 Zrotation Yrotation Xrotation
		JOINT LeftLeg
		{
			OFFSET 2.448110 -6.726130 0.000000 
			CHANNELS 3 Zrotation Yrotation Xrotation
			JOINT LeftFoot
			{
				OFFSET 2.562200 -7.039590 0.000000 
				CHANNELS 3 Zrotation Yrotation Xrotation
				JOINT LeftToeBase
				{
					OFFSET 0.157640 -0.433110 2.322550 
					CHANNELS 3 Zrotation Yrotation Xrotation
					End Site
					{
						OFFSET 0.000000 0.000000 0.000000 
					}
				}
			}
		}
	}
	JOINT RightUpLeg
	{
		OFFSET -1.305520 -1.794630 0.839290 
		CHANNELS 3 Zrotation Yrotation Xrotation
		JOINT RightLeg
		{
			OFFSET -2.542530 -6.985550 0.000000 
			CHANNELS 3 Zrotation Yrotation Xrotation
			JOINT RightFoot
			{
				OFFSET -2.568260 -7.056230 0.000000 
				CHANNELS 3 Zrotation Yrotation Xrotation
				JOINT RightToeBase
				{
					OFFSET -0.164730 -0.452590 2.363150 
					CHANNELS 3 Zrotation Yrotation Xrotation
					End Site
					{
						OFFSET 0.000000 0.000000 0.000000 
					}
				}
			}
		}
	}
	JOINT Spine
	{
		OFFSET 0.028270 2.035590 -0.193380 
		CHANNELS 3 Zrotation Yrotation Xrotation
		JOINT Spine1
		{
			OFFSET 0.056720 2.048850 -0.042750 
			CHANNELS 3 Zrotation Yrotation Xrotation
			JOINT Neck1
			{
				OFFSET -0.054170 1.746240 0.172020 
				CHANNELS 3 Zrotation Yrotation Xrotation
				JOINT Head
				{
					OFFSET 0.104070 1.761360 -0.123970 
					CHANNELS 3 Zrotation Yrotation Xrotation
					End Site
					{
						OFFSET 0.000000 0.000000 0.000000 
					}
				}
			}
			JOINT LeftArm
			{
				OFFSET 3.362410 1.200890 -0.311210 
				CHANNELS 3 Zrotation Yrotation Xrotation
				JOINT LeftForeArm
				{
					OFFSET 4.983000 -0.000000 -0.000000 
					CHANNELS 3 Zrotation Yrotation Xrotation
					JOINT LeftHand
					{
						OFFSET 3.483560 -0.000000 -0.000000 
						CHANNELS 3 Zrotation Yrotation Xrotation
						JOINT LeftHandIndex1
						{
							OFFSET 0.715260 -0.000000 -0.000000 
							CHANNELS 3 Zrotation Yrotation Xrotation
							End Site
							{
								OFFSET 0.000000 0.000000 0.000000 
							}
						}
					}
				}
			}
			JOINT RightArm
			{
				OFFSET -3.136600 1.374050 -0.404650 
				CHANNELS 3 Zrotation Yrotation Xrotation
				JOINT RightForeArm
				{
					OFFSET -5.241900 -0.000000 -0.000000 
					CHANNELS 3 Zrotation Yrotation Xrotation
					JOINT RightHand
					{
						OFFSET -3.444170 -0.000000 -0.000000 
						CHANNELS 3 Zrotation Yrotation Xrotation
						JOINT RightHandIndex1
						{
							OFFSET -0.622530 -0.000000 -0.000000 
							CHANNELS 3 Zrotation Yrotation Xrotation
							End Site
							{
								OFFSET 0.000000 0.000000 0.000000 
							}
						}
					}
				}
			}
		}
	}
}
MOTION
Frames: 6
Frame Time: 0.041667
-39.827161 18.006999 -3.964745 -10.551321 76.423266 -10.628468 -1.696587 -9.084785 -16.523356 -3.283102 6.643229 19.799498 7.287850 -11.753423 30.841680 2.462500 9.769400 28.233000 16.523388 14.964371 2.992080 2.721964 -5.780379 17.733843 -2.401005 3.586225 -5.988784 -1.092100 -6.641100 18.656200 4.851530 -0.133624 7.458780 2.106622 0.648199 1.785819 -0.718687 7.535913 9.503321 -1.604700 3.789100 3.294600 -83.114927 5.230528 22.084167 27.490401 -36.968446 -11.921544 0.600201 -1.664354 -0.144608 -7.125000 0.000000 0.000000 60.747477 -2.443112 44.394269 -28.539871 35.576606 -9.830626 0.700101 0.486593 4.744786 7.125000 0.000000 0.000000 
-39.831592 18.005248 -3.960726 -10.491211 76.457088 -10.587542 -1.710487 -9.095900 -16.545914 -3.274223 6.670590 19.873145 7.296426 -11.829445 30.757845 2.431100 9.711500 28.047500 16.537875 14.953910 2.977921 2.714082 -5.796884 17.782435 -2.389804 3.553784 -5.994528 -1.093900 -6.646400 18.671900 4.861374 -0.135287 7.423590 2.106313 0.652222 1.746202 -1.169192 7.652933 8.896457 -1.804700 3.831000 3.076200 -83.079470 5.357034 22.200465 27.505438 -36.991771 -11.934628 0.601818 -1.662852 -0.149787 -7.125000 0.000000 0.000000 60.843434 -2.489536 44.024677 -28.389592 35.453868 -9.754308 0.705736 0.488443 4.813427 7.125000 0.000000 0.000000 
-39.837362 17.998446 -3.957016 -10.784952 76.486931 -10.898148 -1.658106 -9.115711 -16.579189 -3.259097 6.701099 19.963473 7.311038 -11.907839 30.711911 2.395300 9.645100 27.834800 16.647100 14.921473 3.003922 2.707093 -5.811869 17.827256 -2.363233 3.476312 -6.073006 -1.076500 -6.595100 18.521300 4.881170 -0.141594 7.399061 2.071381 0.656002 1.716878 -1.651387 7.747410 8.333128 -2.021500 3.863300 2.885900 -83.015254 5.421903 22.337916 27.477562 -36.973277 -11.914143 0.599874 -1.663602 -0.160579 -7.125000 0.000000 0.000000 60.978989 -2.503567 43.584963 -28.196926 35.289567 -9.645244 0.698957 0.479068 4.943320 7.125000 0.000000 0.000000 
-39.843030 17.996695 -3.952585 -10.815784 76.524185 -10.960197 -1.654036 -9.145625 -16.601393 -3.247290 6.735016 20.058553 7.320678 -11.989495 30.652428 2.372000 9.601300 27.695100 16.690572 14.934155 3.012893 2.701503 -5.824683 17.864788 -2.331499 3.382761 -6.102616 -1.066900 -6.566600 18.437500 4.894099 -0.140196 7.379823 2.061272 0.662166 1.699080 -2.055455 7.838827 7.797795 -2.204500 3.898300 2.686800 -82.963086 5.511457 22.475416 27.447315 -36.955140 -11.893153 0.599241 -1.662912 -0.100174 -7.125000 0.000000 0.000000 61.100445 -2.581597 43.158795 -28.081164 35.197772 -9.596042 0.714462 0.473897 5.103166 7.125000 0.000000 0.000000 
-39.849316 17.992161 -3.948566 -10.913266 76.569858 -11.081362 -1.639506 -9.183712 -16.639540 -3.235745 6.772952 20.166960 7.317847 -12.005637 30.739655 2.417900 9.687200 27.969500 16.742817 14.939514 3.033907 2.697866 -5.831825 17.890877 -2.287981 3.262848 -6.096324 -1.005800 -6.381500 17.895500 4.921567 -0.138520 7.390610 2.078682 0.666658 1.733432 -2.517879 7.898256 7.264171 -2.416400 3.917100 2.503000 -82.930214 5.480301 22.595701 27.351350 -36.872173 -11.822369 0.598028 -1.659054 0.003202 -7.125000 0.000000 0.000000 61.206787 -2.577287 42.619934 -27.987989 35.115776 -9.550101 0.705905 0.468325 5.152133 7.125000 0.000000 0.000000 
-39.855396 17.987111 -3.944238 -11.028060 76.607318 -11.222244 -1.621836 -9.209307 -16.673856 -3.221606 6.810050 20.270278 7.321304 -12.051862 30.731785 2.417900 9.687100 27.969200 16.802194 14.915197 3.047459 2.691206 -5.844056 17.929777 -2.265686 3.196904 -6.143525 -0.983800 -6.313600 17.697000 4.943354 -0.142171 7.380166 2.077945 0.668969 1.720772 -2.867655 7.947289 6.842948 -2.577300 3.934000 2.358500 -82.892580 5.518381 22.708996 27.300381 -36.832737 -11.786361 0.597766 -1.658579 0.042214 -7.125000 0.000000 0.000000 61.314291 -2.623146 42.163055 -27.912575 35.053771 -9.518685 0.707293 0.464820 5.215778 7.125000 0.000000 0.000000 
